<svg width="460" height="312" viewBox="0 0 460 312" fill="none" xmlns="http://www.w3.org/2000/svg">
<path d="M119.22 0.000976562H441.553C451.695 0.000976562 459.93 8.23551 459.93 18.3779V195.633C459.93 205.775 451.695 214.01 441.553 214.01H119.22C109.077 214.01 100.843 205.775 100.843 195.633V18.3779C100.843 8.23551 109.077 0.000976562 119.22 0.000976562Z" fill="#7F56D9"/>
<mask id="mask0_591_48269" style="mask-type:luminance" maskUnits="userSpaceOnUse" x="100" y="0" width="360" height="215">
<path d="M119.22 0H441.553C451.695 0 459.93 8.23454 459.93 18.377V195.632C459.93 205.775 451.695 214.009 441.553 214.009H119.22C109.077 214.009 100.843 205.775 100.843 195.632V18.377C100.843 8.23454 109.077 0 119.22 0Z" fill="white"/>
</mask>
<g mask="url(#mask0_591_48269)">
<g style="mix-blend-mode:soft-light">
<path d="M382.774 76.6922C332.517 209.542 208.564 120.564 175.962 251.832L519.015 232.269C599.887 -40.4003 483.793 -190.362 382.774 76.6922Z" fill="#7F56D9"/>
</g>
<g style="mix-blend-mode:soft-light">
<path d="M36.3799 -31.3147C36.3799 -31.3147 43.3392 26.7027 44.7034 34.008C127.405 68.9232 252.603 41.7878 297.177 -40.3994L36.3898 -31.3147H36.3799Z" fill="#7F56D9"/>
</g>
</g>
<path d="M183.861 147.847H124.103C120.762 147.847 118.053 145.138 118.053 141.797C118.053 138.456 120.762 135.747 124.103 135.747H183.861C187.202 135.747 189.91 138.456 189.91 141.797C189.91 145.138 187.202 147.847 183.861 147.847Z" fill="white"/>
<path d="M268.124 147.847H208.367C205.025 147.847 202.317 145.138 202.317 141.797C202.317 138.456 205.025 135.747 208.367 135.747H268.124C271.465 135.747 274.174 138.456 274.174 141.797C274.174 145.138 271.465 147.847 268.124 147.847Z" fill="white"/>
<path d="M352.397 147.847H292.64C289.299 147.847 286.59 145.138 286.59 141.797C286.59 138.456 289.299 135.747 292.64 135.747H352.397C355.739 135.747 358.447 138.456 358.447 141.797C358.447 145.138 355.739 147.847 352.397 147.847Z" fill="white"/>
<path d="M436.66 147.847H376.903C373.562 147.847 370.853 145.138 370.853 141.797C370.853 138.456 373.562 135.747 376.903 135.747H436.66C440.001 135.747 442.71 138.456 442.71 141.797C442.71 145.138 440.001 147.847 436.66 147.847Z" fill="white"/>
<path d="M430.313 17.2109H404.235C397.389 17.2109 391.839 22.7609 391.839 29.6072V55.6849C391.839 62.5312 397.389 68.0812 404.235 68.0812H430.313C437.159 68.0812 442.709 62.5312 442.709 55.6849V29.6072C442.709 22.7609 437.159 17.2109 430.313 17.2109Z" fill="white"/>
<path d="M436.66 184.689H376.902C373.561 184.689 370.853 187.398 370.853 190.739C370.853 194.081 373.561 196.789 376.902 196.789H436.66C440.001 196.789 442.71 194.081 442.71 190.739C442.71 187.398 440.001 184.689 436.66 184.689Z" fill="#00040D"/>
<path d="M183.861 29.3214H124.104C120.762 29.3214 118.054 26.6128 118.054 23.2715C118.054 19.9303 120.762 17.2217 124.104 17.2217H183.861C187.202 17.2217 189.911 19.9303 189.911 23.2715C189.911 26.6128 187.202 29.3214 183.861 29.3214Z" fill="white"/>
<path d="M118.054 85.0352V94.9799C118.054 97.1547 119.814 98.9143 121.988 98.9143H164.99C167.165 98.9143 168.924 97.1547 168.924 94.9799V85.0352H118.054Z" fill="white"/>
<path d="M168.924 80.0334V70.0887C168.924 67.9139 167.164 66.1543 164.99 66.1543H121.988C119.813 66.1543 118.054 67.9139 118.054 70.0887V80.0334H168.924Z" fill="white"/>
<path d="M151.205 84.3609C152.205 80.1094 149.569 75.8519 145.318 74.8515C141.066 73.8512 136.809 76.4869 135.808 80.7384C134.808 84.99 137.444 89.2474 141.695 90.2478C145.947 91.2481 150.204 88.6125 151.205 84.3609Z" fill="#3DD5A7"/>
<path d="M0.00976562 233.284V115.915C0.00976562 105.773 8.23442 97.5381 18.3867 97.5381H195.79C205.933 97.5381 214.167 105.763 214.167 115.915V233.284" fill="#4EDAB1"/>
<path d="M0.0100098 233.284V293.17C0.0100098 303.312 8.23466 311.547 18.387 311.547H195.79C205.933 311.547 214.167 303.322 214.167 293.17V233.284H0.0100098Z" fill="white"/>
<path d="M41.6868 294.327C55.1992 294.327 66.1532 283.373 66.1532 269.861C66.1532 256.348 55.1992 245.395 41.6868 245.395C28.1744 245.395 17.2205 256.348 17.2205 269.861C17.2205 283.373 28.1744 294.327 41.6868 294.327Z" fill="#585B63"/>
<path d="M190.888 285.124H131.131C127.789 285.124 125.081 282.416 125.081 279.074C125.081 275.733 127.789 273.024 131.131 273.024H190.888C194.229 273.024 196.938 275.733 196.938 279.074C196.938 282.416 194.229 285.124 190.888 285.124Z" fill="#585B63"/>
<path d="M190.888 266.697H85.0843C81.743 266.697 79.0344 263.989 79.0344 260.648C79.0344 257.306 81.743 254.598 85.0843 254.598H190.888C194.229 254.598 196.938 257.306 196.938 260.648C196.938 263.989 194.229 266.697 190.888 266.697Z" fill="#585B63"/>
<path d="M50.0302 271.136C49.6842 270.404 49.1899 269.792 48.5573 269.287C47.9246 268.783 47.1733 268.378 46.2935 268.052C45.4137 267.735 44.4252 267.459 43.318 267.241C41.855 266.945 40.7379 266.628 39.9668 266.292C39.1958 265.966 38.8103 265.422 38.8103 264.691C38.8103 264.147 39.0277 263.712 39.4528 263.366C39.8779 263.03 40.6193 262.852 41.6572 262.852C42.6161 262.852 43.3279 263.01 43.7925 263.317C44.2571 263.623 44.5438 264.107 44.6624 264.74H50.0697C49.9511 263.099 49.3777 261.765 48.3595 260.737C47.3413 259.708 45.8091 259.056 43.7628 258.799V256.041H39.5319V258.799C37.6141 259.076 36.1115 259.738 35.0241 260.776C33.9466 261.814 33.4029 263.178 33.4029 264.859C33.4029 266.223 33.6698 267.34 34.2135 268.21C34.7572 269.08 35.5283 269.762 36.5267 270.266C37.5251 270.77 38.7213 271.185 40.0954 271.531C41.1531 271.749 42.0625 271.976 42.8138 272.194C43.5651 272.411 44.1286 272.688 44.5141 273.024C44.8898 273.35 45.0875 273.775 45.0875 274.299C45.0875 274.962 44.8107 275.446 44.2472 275.772C43.6838 276.089 42.8237 276.257 41.6671 276.257C40.6094 276.257 39.8087 276.079 39.265 275.733C38.7213 275.387 38.3753 274.823 38.2171 274.062H32.8098C32.8494 275.802 33.4227 277.216 34.5398 278.293C35.6469 279.371 37.3176 280.053 39.5418 280.339V283.671H43.7727V280.31C45.9179 280.033 47.5786 279.331 48.7747 278.224C49.9709 277.117 50.564 275.644 50.564 273.825C50.564 272.767 50.3861 271.868 50.0401 271.136H50.0302Z" fill="white"/>
<path d="M58.0177 213.493H17.2207V208.551H55.1016L82.7411 158.6H128.57L156.209 113.295H196.937V118.238H158.987L131.348 163.542H85.6573L58.0177 213.493Z" fill="white"/>
</svg>
