<svg width="400" height="356" viewBox="0 0 400 356" fill="none" xmlns="http://www.w3.org/2000/svg">
<path d="M0.509766 272.353V335.803C0.509766 346.555 9.2238 355.269 19.9751 355.269H380.534C391.285 355.269 399.999 346.555 399.999 335.803V272.353H0.509766Z" fill="white"/>
<path d="M381.76 301.169C381.76 297.562 378.839 294.642 375.233 294.642H97.0544C93.4481 294.642 90.5273 297.562 90.5273 301.169C90.5273 304.775 93.4481 307.696 97.0544 307.696H375.233C378.839 307.696 381.76 304.775 381.76 301.169Z" fill="#00000D"/>
<path d="M336.611 314.507H185.261C181.655 314.507 178.734 317.428 178.734 321.034C178.734 324.64 181.655 327.561 185.261 327.561H336.611C340.217 327.561 343.138 324.64 343.138 321.034C343.138 317.428 340.217 314.507 336.611 314.507Z" fill="#00000D"/>
<path d="M0.509766 272.352V136.524C0.509766 125.773 9.2238 117.059 19.9751 117.059H380.534C391.285 117.059 399.999 125.773 399.999 136.524V272.352" fill="#4EDAB1"/>
<path d="M93.7669 251.183H18.7441V246.355H91.8793L151.695 191.136H238.145L297.955 133.951H381.76V138.779H299.896L240.081 195.963H153.582L93.7669 251.183Z" fill="white"/>
<path d="M44.6741 341.032C61.2024 341.032 74.6012 327.633 74.6012 311.105C74.6012 294.577 61.2024 281.178 44.6741 281.178C28.1459 281.178 14.7471 294.577 14.7471 311.105C14.7471 327.633 28.1459 341.032 44.6741 341.032Z" fill="#00000D"/>
<path d="M54.8807 312.664C54.4511 311.771 53.8524 311.018 53.08 310.405C52.3076 309.792 51.3855 309.29 50.3089 308.899C49.2323 308.508 48.0205 308.175 46.6736 307.909C44.8874 307.542 43.5211 307.156 42.5797 306.75C41.6383 306.345 41.1652 305.693 41.1652 304.786C41.1652 304.124 41.4259 303.588 41.9569 303.168C42.4831 302.753 43.3811 302.545 44.6556 302.545C45.8288 302.545 46.6977 302.734 47.2626 303.115C47.8274 303.497 48.1799 304.076 48.3295 304.858H54.9387C54.7938 302.85 54.0938 301.218 52.8434 299.958C51.5931 298.698 49.7199 297.906 47.224 297.587V294.208H42.0438V297.587C39.6927 297.93 37.8582 298.736 36.5354 300.011C35.2126 301.285 34.5512 302.951 34.5512 305.003C34.5512 306.668 34.8795 308.035 35.5409 309.097C36.2023 310.164 37.1437 310.999 38.3699 311.612C39.5913 312.225 41.0493 312.737 42.739 313.152C44.0377 313.422 45.1432 313.693 46.0605 313.958C46.9778 314.229 47.6681 314.567 48.1364 314.967C48.5999 315.373 48.8364 315.894 48.8364 316.527C48.8364 317.333 48.4937 317.936 47.8081 318.327C47.1226 318.718 46.0701 318.916 44.6508 318.916C43.3521 318.916 42.3721 318.704 41.7107 318.274C41.0493 317.845 40.6196 317.169 40.4265 316.237H33.8174C33.8657 318.366 34.5705 320.094 35.9271 321.417C37.2837 322.74 39.3258 323.57 42.039 323.913V327.988H47.2191V323.874C49.8406 323.532 51.8779 322.682 53.331 321.32C54.789 319.964 55.518 318.168 55.518 315.942C55.518 314.644 55.3056 313.548 54.8759 312.655L54.8807 312.664Z" fill="white"/>
<g clip-path="url(#clip0_593_50567)">
<path d="M365.051 88.8633V107.389C365.051 156.276 325.42 195.907 276.533 195.907C227.647 195.907 188 156.292 188 107.389V88.8633H365.051Z" fill="#00040D"/>
<path d="M362.878 108.727C373.601 61.0304 343.628 13.6724 295.931 2.94982C248.235 -7.77279 200.877 22.2004 190.154 69.8968C179.432 117.593 209.405 164.951 257.101 175.674C304.798 186.396 352.156 156.423 362.878 108.727Z" fill="#7F56D9"/>
<path d="M269.112 136.975V125.473C261.439 124.508 255.696 122.151 251.868 118.433C248.039 114.699 246.046 109.826 245.903 103.83H264.556C265.11 106.456 266.312 108.371 268.179 109.573C270.046 110.775 272.799 111.392 276.469 111.392C280.472 111.392 283.446 110.839 285.376 109.731C287.306 108.624 288.271 106.931 288.271 104.653C288.271 102.865 287.607 101.394 286.294 100.255C284.981 99.1155 283.035 98.1662 280.44 97.4068C277.846 96.6474 274.729 95.888 271.058 95.1286C266.296 93.9579 262.183 92.5024 258.734 90.7779C255.285 89.0534 252.611 86.6803 250.76 83.6744C248.893 80.6684 247.96 76.824 247.96 72.1252C247.96 66.3189 249.827 61.6202 253.561 58.0288C257.294 54.4375 262.468 52.1593 269.097 51.1942V41.6543H283.715V51.1942C290.755 52.096 296.039 54.3268 299.568 57.8706C303.096 61.4303 305.057 66.0342 305.469 71.698H286.816C286.405 69.4831 285.392 67.8536 283.81 66.7777C282.228 65.7019 279.76 65.164 276.453 65.164C272.862 65.164 270.315 65.7494 268.843 66.9201C267.356 68.0909 266.613 69.6097 266.613 71.4765C266.613 74.0395 267.942 75.8747 270.6 77.0138C273.257 78.1529 277.102 79.2445 282.149 80.2729C285.946 81.0323 289.363 81.9657 292.401 83.0732C295.438 84.1806 298.049 85.5887 300.216 87.329C302.399 89.0534 304.092 91.1893 305.295 93.7048C306.497 96.2203 307.114 99.3211 307.114 102.976C307.114 109.257 305.057 114.319 300.944 118.148C296.831 121.977 291.088 124.381 283.699 125.346V136.959H269.081L269.112 136.975Z" fill="white"/>
</g>
<defs>
<clipPath id="clip0_593_50567">
<rect width="177.051" height="195.134" fill="white" transform="translate(188 0.789062)"/>
</clipPath>
</defs>
</svg>
