<svg width="209" height="203" viewBox="0 0 209 203" fill="none" xmlns="http://www.w3.org/2000/svg">
<rect x="11" y="2" width="158" height="158" rx="79" fill="#F1F5F9"/>
<circle cx="9.68314" cy="25.6997" r="2.63333" fill="#D3C4FC"/>
<circle cx="184.8" cy="46.7671" r="2.63333" fill="#D3C4FC"/>
<circle cx="3.10013" cy="158.683" r="2.63333" fill="#D3C4FC"/>
<g filter="url(#filter0_d_591_49599)">
<rect x="36.0166" y="11.2168" width="107.967" height="138.25" rx="5.26667" fill="white"/>
</g>
<path d="M98.1954 44.2914V45.9431H83.7762V35.3033C83.7762 31.2044 87.0776 27.7655 91.1099 27.8341C94.5681 27.8945 97.4413 30.4391 98.0684 33.7844C98.2179 34.5873 98.9262 35.1573 99.7289 35.1573C100.8 35.1573 101.601 34.1634 101.396 33.0957C100.434 28.0715 96.0247 24.2831 90.7797 24.3848C84.9744 24.4969 80.3789 29.4385 80.3789 35.3387V47.6699C80.3789 48.6225 81.1388 49.3945 82.0764 49.3945H99.8907C100.828 49.3945 101.588 48.6225 101.588 47.6699V44.2929H98.1954V44.2914Z" fill="#0F172A"/>
<path d="M100.944 61.2489H80.3717C79.1451 61.2489 78.1494 60.238 78.1494 58.9919V42.2765C78.1494 41.0304 79.1451 40.0195 80.3717 40.0195H100.944C102.17 40.0195 103.166 41.0304 103.166 42.2765V58.9919C103.166 60.238 102.173 61.2489 100.944 61.2489Z" fill="#6B39F4"/>
<path d="M92.4881 50.4778C93.1549 49.8239 93.5443 48.8193 93.4222 47.7183C93.2648 46.2998 92.2386 45.1621 90.9751 45.0054C89.2911 44.7949 87.867 46.2696 87.867 48.1186C87.867 49.0593 88.2386 49.9037 88.8238 50.4778C88.8322 50.4861 88.8353 50.5009 88.8322 50.5127L87.5939 54.2917C87.3492 55.0373 87.8407 55.8285 88.5475 55.8285H92.7675C93.4743 55.8285 93.9658 55.0373 93.7206 54.2917L92.4823 50.5127C92.4765 50.5009 92.4797 50.4879 92.4881 50.4778Z" fill="white"/>
<rect x="46.5498" y="111.283" width="86.9" height="26.3333" rx="3.95" fill="#F1F5F9"/>
<path d="M57.9519 129.717L55.519 127.87L57.6425 125.255L54.4502 124.354L55.3784 121.355L58.4301 122.67L58.2191 119.184H61.2287L61.0177 122.67L64.0554 121.355L64.9835 124.354L61.8052 125.255L63.9147 127.87L61.4818 129.717L59.7239 126.821L57.9519 129.717Z" fill="#94A3B8"/>
<path d="M77.7019 129.717L75.269 127.87L77.3925 125.255L74.2002 124.354L75.1284 121.355L78.1801 122.67L77.9691 119.184H80.9787L80.7677 122.67L83.8054 121.355L84.7335 124.354L81.5552 125.255L83.6647 127.87L81.2318 129.717L79.4739 126.821L77.7019 129.717Z" fill="#94A3B8"/>
<path d="M97.4519 129.717L95.019 127.87L97.1425 125.255L93.9502 124.354L94.8784 121.355L97.9301 122.67L97.7191 119.184H100.729L100.518 122.67L103.555 121.355L104.484 124.354L101.305 125.255L103.415 127.87L100.982 129.717L99.2239 126.821L97.4519 129.717Z" fill="#94A3B8"/>
<path d="M117.202 129.717L114.769 127.87L116.893 125.255L113.7 124.354L114.628 121.355L117.68 122.67L117.469 119.184H120.479L120.268 122.67L123.305 121.355L124.234 124.354L121.055 125.255L123.165 127.87L120.732 129.717L118.974 126.821L117.202 129.717Z" fill="#94A3B8"/>
<rect x="46.5498" y="77.0498" width="86.9" height="26.3333" rx="3.95" fill="#F1F5F9"/>
<path d="M57.9519 95.4835L55.519 93.6369L57.6425 91.022L54.4502 90.1208L55.3784 87.1219L58.4301 88.4367L58.2191 84.9502H61.2287L61.0177 88.4367L64.0554 87.1219L64.9835 90.1208L61.8052 91.022L63.9147 93.6369L61.4818 95.4835L59.7239 92.588L57.9519 95.4835Z" fill="#94A3B8"/>
<path d="M77.7019 95.4835L75.269 93.6369L77.3925 91.022L74.2002 90.1208L75.1284 87.1219L78.1801 88.4367L77.9691 84.9502H80.9787L80.7677 88.4367L83.8054 87.1219L84.7335 90.1208L81.5552 91.022L83.6647 93.6369L81.2318 95.4835L79.4739 92.588L77.7019 95.4835Z" fill="#94A3B8"/>
<path d="M97.4519 95.4835L95.019 93.6369L97.1425 91.022L93.9502 90.1208L94.8784 87.1219L97.9301 88.4367L97.7191 84.9502H100.729L100.518 88.4367L103.555 87.1219L104.484 90.1208L101.305 91.022L103.415 93.6369L100.982 95.4835L99.2239 92.588L97.4519 95.4835Z" fill="#94A3B8"/>
<path d="M117.202 95.4835L114.769 93.6369L116.893 91.022L113.7 90.1208L114.628 87.1219L117.68 88.4367L117.469 84.9502H120.479L120.268 88.4367L123.305 87.1219L124.234 90.1208L121.055 91.022L123.165 93.6369L120.732 95.4835L118.974 92.588L117.202 95.4835Z" fill="#94A3B8"/>
<g filter="url(#filter1_d_591_49599)">
<circle cx="142.667" cy="133.667" r="26.3333" fill="#1DCE5C"/>
<circle cx="142.667" cy="133.667" r="26.3333" stroke="white" stroke-width="3.95"/>
</g>
<path d="M134.767 133.667L141.35 140.251L154.517 127.084" stroke="white" stroke-width="3.95" stroke-linecap="round" stroke-linejoin="round"/>
<defs>
<filter id="filter0_d_591_49599" x="14.9499" y="0.683463" width="150.1" height="180.383" filterUnits="userSpaceOnUse" color-interpolation-filters="sRGB">
<feFlood flood-opacity="0" result="BackgroundImageFix"/>
<feColorMatrix in="SourceAlpha" type="matrix" values="0 0 0 0 0 0 0 0 0 0 0 0 0 0 0 0 0 0 127 0" result="hardAlpha"/>
<feOffset dy="10.5333"/>
<feGaussianBlur stdDeviation="10.5333"/>
<feColorMatrix type="matrix" values="0 0 0 0 0.0588235 0 0 0 0 0.0901961 0 0 0 0 0.164706 0 0 0 0.08 0"/>
<feBlend mode="normal" in2="BackgroundImageFix" result="effect1_dropShadow_591_49599"/>
<feBlend mode="normal" in="SourceGraphic" in2="effect1_dropShadow_591_49599" result="shape"/>
</filter>
<filter id="filter1_d_591_49599" x="82.496" y="76.3927" width="126.136" height="126.136" filterUnits="userSpaceOnUse" color-interpolation-filters="sRGB">
<feFlood flood-opacity="0" result="BackgroundImageFix"/>
<feColorMatrix in="SourceAlpha" type="matrix" values="0 0 0 0 0 0 0 0 0 0 0 0 0 0 0 0 0 0 127 0" result="hardAlpha"/>
<feOffset dx="2.89667" dy="5.79333"/>
<feGaussianBlur stdDeviation="17.38"/>
<feComposite in2="hardAlpha" operator="out"/>
<feColorMatrix type="matrix" values="0 0 0 0 0.0588235 0 0 0 0 0.0901962 0 0 0 0 0.164706 0 0 0 0.08 0"/>
<feBlend mode="normal" in2="BackgroundImageFix" result="effect1_dropShadow_591_49599"/>
<feBlend mode="normal" in="SourceGraphic" in2="effect1_dropShadow_591_49599" result="shape"/>
</filter>
</defs>
</svg>
