<svg width="1317" height="766" viewBox="0 0 1317 766" fill="none" xmlns="http://www.w3.org/2000/svg">
<g opacity="0.6">
<g filter="url(#filter0_f_489_40269)">
<ellipse cx="757.433" cy="525.193" rx="262.002" ry="203.033" fill="#D1F8FF"/>
</g>
<g opacity="0.6" filter="url(#filter1_f_489_40269)">
<ellipse cx="705.557" cy="610.159" rx="301.868" ry="102.513" transform="rotate(-41.8698 705.557 610.159)" fill="#3CD5A6"/>
</g>
<mask id="mask0_489_40269" style="mask-type:alpha" maskUnits="userSpaceOnUse" x="252" y="252" width="1065" height="1306">
<path d="M543.443 425.615C656.894 423.848 901.259 269.3 1032.12 252.516L1317 554.672C966.223 761.551 1267.61 425.615 775.946 877.946C643.845 999.479 716.711 1302.3 832.055 1557.22L467.221 1337.64C358.65 1171.98 260.561 912.431 253.191 864.779C243.979 805.214 429.993 427.382 543.443 425.615Z" fill="#C4C4C4"/>
</mask>
<g mask="url(#mask0_489_40269)">
<g opacity="0.4" filter="url(#filter2_f_489_40269)">
<ellipse cx="537.891" cy="1123.58" rx="608.286" ry="341.364" transform="rotate(-51.0502 537.891 1123.58)" fill="url(#paint0_linear_489_40269)"/>
</g>
<mask id="mask1_489_40269" style="mask-type:alpha" maskUnits="userSpaceOnUse" x="-387" y="53" width="1862" height="2081">
<path d="M692.06 53.913L1474.39 471.815L522.495 2133.95L-386.316 1680.89L692.06 53.913Z" fill="url(#paint1_linear_489_40269)"/>
</mask>
<g mask="url(#mask1_489_40269)">
<mask id="mask2_489_40269" style="mask-type:alpha" maskUnits="userSpaceOnUse" x="-231" y="232" width="1475" height="1733">
<path d="M374.202 1964.71C114.343 1795.1 -217.104 1578.66 -230.978 1571.65L638.573 232.837L1243.75 625.898L374.202 1964.71Z" fill="url(#paint2_linear_489_40269)"/>
</mask>
<g mask="url(#mask2_489_40269)">
<path d="M280.128 1017.26C378.202 866.257 553.863 799.835 637.421 854.105C720.979 908.375 790.933 1040.72 685.708 1202.73C633.564 1283.02 626.107 1416.77 522.546 1485.13C417.124 1554.72 317.501 1458.62 275.35 1431.25C191.792 1376.98 182.054 1168.26 280.128 1017.26Z" fill="url(#paint3_linear_489_40269)"/>
<path d="M286.11 1023.71C391.292 861.77 546.682 797.904 618.505 844.553C690.329 891.202 744.9 1013.52 639.718 1175.47C587.595 1255.72 574.189 1385.55 476.496 1457.67C377.048 1531.08 293.423 1445.39 257.192 1421.86C185.368 1375.21 180.928 1185.66 286.11 1023.71Z" fill="url(#paint4_linear_489_40269)"/>
<path d="M289.294 1018.81C407.183 837.302 590.323 771.552 678.873 829.064C767.423 886.577 839.15 1030.53 721.261 1212.04C662.842 1301.99 661.655 1456.5 548.151 1534.72C432.609 1614.35 320.414 1506.31 275.745 1477.3C187.195 1419.79 171.405 1200.32 289.294 1018.81Z" fill="url(#paint5_linear_489_40269)"/>
<g filter="url(#filter5_f_489_40269)">
<path d="M313.391 1004.67C480.662 794.684 1272.46 452.521 819.71 750.963C366.962 1049.41 688.933 1053.32 547.549 1271.01C477.487 1378.88 772.946 1542.37 638.097 1637.01C500.826 1733.36 378.747 1611.89 326.467 1577.93C222.831 1510.62 119.617 1247.94 313.391 1004.67Z" fill="#3CD5A6"/>
</g>
<g filter="url(#filter6_f_489_40269)">
<path d="M404.368 956.413C556.601 722.026 1254.69 424.49 922.508 672.777C590.326 921.065 1053.83 932.202 901.596 1166.59C826.156 1282.74 773.229 1448.88 633.143 1554.11C490.54 1661.22 373.091 1539.52 321.977 1506.33C220.651 1440.52 252.134 1190.8 404.368 956.413Z" fill="#3CD5A6"/>
</g>
<g filter="url(#filter7_f_489_40269)">
<path d="M504.065 891.456C661.384 649.238 933.389 529.416 1037.02 596.727C260.829 1027.07 1170.5 863.366 1013.18 1105.58C935.217 1225.62 880.111 1397.04 735.881 1506.13C589.059 1617.18 469.151 1492.36 416.872 1458.41C313.236 1391.1 346.745 1133.67 504.065 891.456Z" fill="#3CD5A6"/>
</g>
<g filter="url(#filter8_f_489_40269)">
<path d="M283.637 1062.93C421.291 850.99 873.259 621.473 811.802 736.816C750.344 852.16 748.425 1072.06 610.771 1284C542.556 1389.03 662.623 1537.76 529.97 1629.02C394.933 1721.92 272.346 1601.23 220.067 1567.28C116.431 1499.97 145.982 1274.87 283.637 1062.93Z" fill="url(#paint6_linear_489_40269)"/>
</g>
</g>
</g>
<mask id="mask3_489_40269" style="mask-type:alpha" maskUnits="userSpaceOnUse" x="196" y="-463" width="1100" height="1326">
<path d="M196.225 845.986L372.271 -156.624L834.004 -462.892L1295.18 436.343L963.958 862.046L196.225 845.986Z" fill="black"/>
</mask>
<g mask="url(#mask3_489_40269)">
<mask id="mask4_489_40269" style="mask-type:alpha" maskUnits="userSpaceOnUse" x="-63" y="-350" width="1611" height="1602">
<path d="M1547.44 6.35125L201.217 -349.168L-62.2315 914.786C210.365 1029.39 757.284 1257.22 764.183 1251.67C771.082 1246.12 1289.23 419.146 1547.44 6.35125Z" fill="url(#paint7_linear_489_40269)"/>
</mask>
<g mask="url(#mask4_489_40269)">
<mask id="mask5_489_40269" style="mask-type:alpha" maskUnits="userSpaceOnUse" x="56" y="-255" width="1279" height="1532">
<path d="M458.336 -254.015C834.949 -132.114 1315.36 23.458 1334.55 28.1893L932.463 1276.61L56.2522 994.41L458.336 -254.015Z" fill="url(#paint8_linear_489_40269)"/>
</mask>
<g mask="url(#mask5_489_40269)">
<path d="M1011.61 532.31C980.036 630.337 818.548 669.293 697.568 630.329C576.589 591.365 430.605 500.55 464.479 395.376C481.265 343.257 420.775 253.928 500.963 211.41C582.592 168.128 742.977 235.603 804.005 255.259C924.985 294.223 1043.18 434.284 1011.61 532.31Z" fill="#3CD5A6"/>
<g filter="url(#filter9_f_489_40269)">
<path d="M1009.65 531.356C973.372 643.995 797.62 676.365 663.331 633.114C529.042 589.863 366.499 490.606 402.777 377.967C420.754 322.149 349.321 224.339 437.553 179.561C527.37 133.978 705.58 208.317 773.322 230.135C907.611 273.386 1045.93 418.717 1009.65 531.356Z" fill="#3CD5A6"/>
</g>
<g filter="url(#filter10_f_489_40269)">
<path d="M988.188 528.44C1025.14 595.529 772.3 711.552 644.845 670.503C517.39 629.453 366.341 525.245 409.311 391.829C430.605 325.714 356.071 213.107 444.839 154.999C535.203 95.8473 713.96 173.488 778.254 194.196C905.709 235.245 1076.47 474.135 988.188 528.44Z" fill="#3CD5A6"/>
</g>
<g filter="url(#filter11_f_489_40269)">
<path d="M933.555 524.927C856.849 660.792 660.196 730.46 517.765 684.587C375.334 638.714 245.14 515.284 290.654 373.969C313.209 303.94 186.969 163.92 284.693 103.564C384.172 42.1238 572.228 123.947 644.077 147.088C786.508 192.961 1022.42 367.535 933.555 524.927Z" fill="#3CD5A6"/>
</g>
<g filter="url(#filter12_f_489_40269)">
<path d="M905.459 601.745C812.439 680.639 558.991 842.738 412.287 795.488C265.582 748.239 293.577 336.306 342.583 184.146C366.868 108.744 340.367 -0.841167 442.276 -66.8965C546.015 -134.139 696.239 27.2691 830.031 158.319C1007.7 332.343 1052.81 539.25 905.459 601.745Z" fill="#3CD5A6"/>
</g>
<g filter="url(#filter13_f_489_40269)">
<path d="M897.994 490.62C847.35 647.863 441.837 850.971 291.787 802.644C141.738 754.317 173.127 437.228 223.771 279.985C248.867 202.063 196.184 -45.3523 300.722 -113.864C407.138 -183.606 504.962 -94.1731 580.655 -69.7945C730.705 -21.4676 948.638 333.377 897.994 490.62Z" fill="#3CD5A6"/>
</g>
<g filter="url(#filter14_f_489_40269)">
<path d="M897.994 490.62C847.35 647.863 441.837 850.971 291.787 802.644C141.738 754.317 173.127 437.228 223.771 279.985C248.867 202.063 196.184 -45.3523 300.722 -113.864C407.138 -183.606 504.962 -94.1731 580.655 -69.7945C730.705 -21.4676 948.638 333.377 897.994 490.62Z" fill="#3CD5A6"/>
</g>
<g filter="url(#filter15_f_489_40269)">
<path d="M897.994 490.62C847.35 647.863 441.837 850.971 291.787 802.644C141.738 754.317 173.127 437.228 223.771 279.985C248.867 202.063 196.184 -45.3523 300.722 -113.864C407.138 -183.606 504.962 -94.1731 580.655 -69.7945C730.705 -21.4676 948.638 333.377 897.994 490.62Z" fill="#3CD5A6"/>
</g>
<g filter="url(#filter16_f_489_40269)">
<path d="M897.994 490.62C847.35 647.863 457.99 869.143 307.941 820.816C157.891 772.489 173.127 437.228 223.771 279.985C248.867 202.063 196.184 -45.3523 300.722 -113.864C407.138 -183.606 504.962 -94.1731 580.655 -69.7945C730.705 -21.4676 948.638 333.377 897.994 490.62Z" fill="#3CD5A6"/>
</g>
<g filter="url(#filter17_f_489_40269)">
<path d="M959.796 551.281C915.483 688.869 679.602 743.633 529.552 695.306C379.503 646.979 240.445 522.844 284.758 385.256C306.718 317.075 303.933 198.175 404.744 141.235C507.366 83.2727 661.823 167.355 737.515 191.734C887.565 240.061 1004.11 413.693 959.796 551.281Z" fill="#3CD5A6"/>
</g>
</g>
</g>
</g>
</g>
<mask id="mask6_489_40269" style="mask-type:alpha" maskUnits="userSpaceOnUse" x="111" y="-96" width="1193" height="937">
<path d="M111.666 180.102L408.732 -95.1902L1303.12 372.928L824.294 840.789L111.666 180.102Z" fill="url(#paint9_linear_489_40269)"/>
</mask>
<g mask="url(#mask6_489_40269)">
<g opacity="0.58">
<mask id="mask7_489_40269" style="mask-type:alpha" maskUnits="userSpaceOnUse" x="-195" y="-231" width="1704" height="1503">
<path d="M-194.086 139.138L448.347 -230.882L1508.46 662.513L1038.38 1271.58L-194.086 139.138Z" fill="url(#paint10_linear_489_40269)"/>
</mask>
<g mask="url(#mask7_489_40269)">
<path d="M963.804 577.026C879.095 365.986 683.916 235.207 553.745 168.83L470.583 141.696L399.836 126.915L267.782 219.066L396.036 446.678L769.974 734.168L933.648 742.957C956.359 742.754 994.184 709.283 963.804 577.026Z" fill="#B5A6F1"/>
<g filter="url(#filter18_f_489_40269)">
<path d="M978.232 571.036C909.167 420.468 850.811 392.546 749.645 341.503L666.483 314.369L595.736 299.589L463.682 391.739L381.714 445.08L755.652 732.57L919.326 741.359C942.036 741.156 1008.61 703.292 978.232 571.036Z" fill="#B5A6F1"/>
</g>
<g filter="url(#filter19_f_489_40269)">
<path d="M1014.01 603.395C857.217 340.576 596.718 215.933 495.552 164.89L446.886 138.57L393.475 118.954L261.421 211.105L389.676 438.717L763.613 726.207L929.923 672.376C952.634 672.173 1044.39 735.651 1014.01 603.395Z" fill="#B5A6F1"/>
</g>
<g filter="url(#filter20_f_489_40269)">
<path d="M1016.59 616.824C797.058 317.422 570.587 183.225 469.42 132.183L420.755 105.863L367.344 86.2468L158.709 146.819L445.609 472.61L827.222 910.941L1008.64 853.847C1031.35 853.644 1046.97 749.081 1016.59 616.824Z" fill="#B5A6F1"/>
</g>
</g>
</g>
</g>
</g>
<defs>
<filter id="filter0_f_489_40269" x="308.82" y="135.549" width="897.227" height="779.289" filterUnits="userSpaceOnUse" color-interpolation-filters="sRGB">
<feFlood flood-opacity="0" result="BackgroundImageFix"/>
<feBlend mode="normal" in="SourceGraphic" in2="BackgroundImageFix" result="shape"/>
<feGaussianBlur stdDeviation="93.3056" result="effect1_foregroundBlur_489_40269"/>
</filter>
<filter id="filter1_f_489_40269" x="364.952" y="289.074" width="681.21" height="642.169" filterUnits="userSpaceOnUse" color-interpolation-filters="sRGB">
<feFlood flood-opacity="0" result="BackgroundImageFix"/>
<feBlend mode="normal" in="SourceGraphic" in2="BackgroundImageFix" result="shape"/>
<feGaussianBlur stdDeviation="52.7851" result="effect1_foregroundBlur_489_40269"/>
</filter>
<filter id="filter2_f_489_40269" x="-174.434" y="357.22" width="1424.65" height="1532.71" filterUnits="userSpaceOnUse" color-interpolation-filters="sRGB">
<feFlood flood-opacity="0" result="BackgroundImageFix"/>
<feBlend mode="normal" in="SourceGraphic" in2="BackgroundImageFix" result="shape"/>
<feGaussianBlur stdDeviation="123.385" result="effect1_foregroundBlur_489_40269"/>
</filter>
<filter id="filter5_f_489_40269" x="163.493" y="593.09" width="835.128" height="1121.23" filterUnits="userSpaceOnUse" color-interpolation-filters="sRGB">
<feFlood flood-opacity="0" result="BackgroundImageFix"/>
<feBlend mode="normal" in="SourceGraphic" in2="BackgroundImageFix" result="shape"/>
<feGaussianBlur stdDeviation="20.4437" result="effect1_foregroundBlur_489_40269"/>
</filter>
<filter id="filter6_f_489_40269" x="152.914" y="468.645" width="968.572" height="1239.07" filterUnits="userSpaceOnUse" color-interpolation-filters="sRGB">
<feFlood flood-opacity="0" result="BackgroundImageFix"/>
<feBlend mode="normal" in="SourceGraphic" in2="BackgroundImageFix" result="shape"/>
<feGaussianBlur stdDeviation="55.1979" result="effect1_foregroundBlur_489_40269"/>
</filter>
<filter id="filter7_f_489_40269" x="83.4512" y="304.228" width="1227.52" height="1520.94" filterUnits="userSpaceOnUse" color-interpolation-filters="sRGB">
<feFlood flood-opacity="0" result="BackgroundImageFix"/>
<feBlend mode="normal" in="SourceGraphic" in2="BackgroundImageFix" result="shape"/>
<feGaussianBlur stdDeviation="136.973" result="effect1_foregroundBlur_489_40269"/>
</filter>
<filter id="filter8_f_489_40269" x="31.27" y="579.163" width="912.992" height="1211.06" filterUnits="userSpaceOnUse" color-interpolation-filters="sRGB">
<feFlood flood-opacity="0" result="BackgroundImageFix"/>
<feBlend mode="normal" in="SourceGraphic" in2="BackgroundImageFix" result="shape"/>
<feGaussianBlur stdDeviation="63.3754" result="effect1_foregroundBlur_489_40269"/>
</filter>
<filter id="filter9_f_489_40269" x="389.152" y="161.821" width="629.589" height="492.958" filterUnits="userSpaceOnUse" color-interpolation-filters="sRGB">
<feFlood flood-opacity="0" result="BackgroundImageFix"/>
<feBlend mode="normal" in="SourceGraphic" in2="BackgroundImageFix" result="shape"/>
<feGaussianBlur stdDeviation="1.60973" result="effect1_foregroundBlur_489_40269"/>
</filter>
<filter id="filter10_f_489_40269" x="388.848" y="121.918" width="634.949" height="568.43" filterUnits="userSpaceOnUse" color-interpolation-filters="sRGB">
<feFlood flood-opacity="0" result="BackgroundImageFix"/>
<feBlend mode="normal" in="SourceGraphic" in2="BackgroundImageFix" result="shape"/>
<feGaussianBlur stdDeviation="5.63407" result="effect1_foregroundBlur_489_40269"/>
</filter>
<filter id="filter11_f_489_40269" x="230.986" y="65.0452" width="738.145" height="649.712" filterUnits="userSpaceOnUse" color-interpolation-filters="sRGB">
<feFlood flood-opacity="0" result="BackgroundImageFix"/>
<feBlend mode="normal" in="SourceGraphic" in2="BackgroundImageFix" result="shape"/>
<feGaussianBlur stdDeviation="8.04867" result="effect1_foregroundBlur_489_40269"/>
</filter>
<filter id="filter12_f_489_40269" x="259.722" y="-126.139" width="777.512" height="973.568" filterUnits="userSpaceOnUse" color-interpolation-filters="sRGB">
<feFlood flood-opacity="0" result="BackgroundImageFix"/>
<feBlend mode="normal" in="SourceGraphic" in2="BackgroundImageFix" result="shape"/>
<feGaussianBlur stdDeviation="21.7314" result="effect1_foregroundBlur_489_40269"/>
</filter>
<filter id="filter13_f_489_40269" x="59.8894" y="-261.944" width="967.564" height="1193.83" filterUnits="userSpaceOnUse" color-interpolation-filters="sRGB">
<feFlood flood-opacity="0" result="BackgroundImageFix"/>
<feBlend mode="normal" in="SourceGraphic" in2="BackgroundImageFix" result="shape"/>
<feGaussianBlur stdDeviation="60.9933" result="effect1_foregroundBlur_489_40269"/>
</filter>
<filter id="filter14_f_489_40269" x="59.8894" y="-261.944" width="967.564" height="1193.83" filterUnits="userSpaceOnUse" color-interpolation-filters="sRGB">
<feFlood flood-opacity="0" result="BackgroundImageFix"/>
<feBlend mode="normal" in="SourceGraphic" in2="BackgroundImageFix" result="shape"/>
<feGaussianBlur stdDeviation="60.9933" result="effect1_foregroundBlur_489_40269"/>
</filter>
<filter id="filter15_f_489_40269" x="59.8894" y="-261.944" width="967.564" height="1193.83" filterUnits="userSpaceOnUse" color-interpolation-filters="sRGB">
<feFlood flood-opacity="0" result="BackgroundImageFix"/>
<feBlend mode="normal" in="SourceGraphic" in2="BackgroundImageFix" result="shape"/>
<feGaussianBlur stdDeviation="60.9933" result="effect1_foregroundBlur_489_40269"/>
</filter>
<filter id="filter16_f_489_40269" x="66.2994" y="-261.944" width="961.154" height="1211.51" filterUnits="userSpaceOnUse" color-interpolation-filters="sRGB">
<feFlood flood-opacity="0" result="BackgroundImageFix"/>
<feBlend mode="normal" in="SourceGraphic" in2="BackgroundImageFix" result="shape"/>
<feGaussianBlur stdDeviation="60.9933" result="effect1_foregroundBlur_489_40269"/>
</filter>
<filter id="filter17_f_489_40269" x="226.492" y="71.3414" width="792.725" height="691.128" filterUnits="userSpaceOnUse" color-interpolation-filters="sRGB">
<feFlood flood-opacity="0" result="BackgroundImageFix"/>
<feBlend mode="normal" in="SourceGraphic" in2="BackgroundImageFix" result="shape"/>
<feGaussianBlur stdDeviation="24.9509" result="effect1_foregroundBlur_489_40269"/>
</filter>
<filter id="filter18_f_489_40269" x="333.768" y="251.643" width="700.212" height="537.662" filterUnits="userSpaceOnUse" color-interpolation-filters="sRGB">
<feFlood flood-opacity="0" result="BackgroundImageFix"/>
<feBlend mode="normal" in="SourceGraphic" in2="BackgroundImageFix" result="shape"/>
<feGaussianBlur stdDeviation="23.9729" result="effect1_foregroundBlur_489_40269"/>
</filter>
<filter id="filter19_f_489_40269" x="213.476" y="71.0083" width="854.586" height="703.144" filterUnits="userSpaceOnUse" color-interpolation-filters="sRGB">
<feFlood flood-opacity="0" result="BackgroundImageFix"/>
<feBlend mode="normal" in="SourceGraphic" in2="BackgroundImageFix" result="shape"/>
<feGaussianBlur stdDeviation="23.9729" result="effect1_foregroundBlur_489_40269"/>
</filter>
<filter id="filter20_f_489_40269" x="22.5428" y="-49.9189" width="1147.08" height="1097.03" filterUnits="userSpaceOnUse" color-interpolation-filters="sRGB">
<feFlood flood-opacity="0" result="BackgroundImageFix"/>
<feBlend mode="normal" in="SourceGraphic" in2="BackgroundImageFix" result="shape"/>
<feGaussianBlur stdDeviation="68.083" result="effect1_foregroundBlur_489_40269"/>
</filter>
<linearGradient id="paint0_linear_489_40269" x1="1146.18" y1="782.213" x2="61.3008" y2="1465.45" gradientUnits="userSpaceOnUse">
<stop stop-color="#6045CF"/>
<stop offset="0.203125" stop-color="#606CDC"/>
<stop offset="0.541667" stop-color="#4B8ECB"/>
<stop offset="1" stop-color="#32D3A1"/>
</linearGradient>
<linearGradient id="paint1_linear_489_40269" x1="1044.46" y1="474.411" x2="303.399" y2="1756.54" gradientUnits="userSpaceOnUse">
<stop stop-color="#C4C4C4" stop-opacity="0"/>
<stop offset="0.203125" stop-color="#C4C4C4"/>
<stop offset="0.554366" stop-color="#C4C4C4"/>
<stop offset="1" stop-color="#C4C4C4" stop-opacity="0"/>
</linearGradient>
<linearGradient id="paint2_linear_489_40269" x1="228.454" y1="1074.15" x2="663.666" y2="1342.92" gradientUnits="userSpaceOnUse">
<stop stop-color="#C4C4C4"/>
<stop offset="1" stop-color="#C4C4C4" stop-opacity="0"/>
</linearGradient>
<linearGradient id="paint3_linear_489_40269" x1="88.2001" y1="1312.76" x2="632.509" y2="1501.96" gradientUnits="userSpaceOnUse">
<stop stop-color="#6045CF"/>
<stop offset="0.203125" stop-color="#606CDC"/>
<stop offset="0.541667" stop-color="#4B8ECB"/>
<stop offset="1" stop-color="#32D3A1"/>
</linearGradient>
<linearGradient id="paint4_linear_489_40269" x1="94.2598" y1="1319.1" x2="562.191" y2="1498.66" gradientUnits="userSpaceOnUse">
<stop stop-color="#6045CF"/>
<stop offset="0.203125" stop-color="#606CDC"/>
<stop offset="0.541667" stop-color="#4B8ECB"/>
<stop offset="1" stop-color="#32D3A1"/>
</linearGradient>
<linearGradient id="paint5_linear_489_40269" x1="74.2679" y1="1349.88" x2="662.618" y2="1559.67" gradientUnits="userSpaceOnUse">
<stop stop-color="#6045CF"/>
<stop offset="0.203125" stop-color="#606CDC"/>
<stop offset="0.541667" stop-color="#4B8ECB"/>
<stop offset="1" stop-color="#32D3A1"/>
</linearGradient>
<linearGradient id="paint6_linear_489_40269" x1="349.796" y1="1599.94" x2="857.034" y2="818.966" gradientUnits="userSpaceOnUse">
<stop offset="0.5625" stop-color="#6941C6"/>
<stop offset="1" stop-color="#5A76FF"/>
</linearGradient>
<linearGradient id="paint7_linear_489_40269" x1="652.555" y1="-110.913" x2="295.707" y2="857.425" gradientUnits="userSpaceOnUse">
<stop stop-color="#C4C4C4" stop-opacity="0"/>
<stop offset="0.430547" stop-color="#C4C4C4"/>
<stop offset="0.498519" stop-color="#C4C4C4"/>
<stop offset="1" stop-color="#C4C4C4" stop-opacity="0"/>
</linearGradient>
<linearGradient id="paint8_linear_489_40269" x1="1143.76" y1="538.905" x2="250.764" y2="359.724" gradientUnits="userSpaceOnUse">
<stop stop-color="#C4C4C4"/>
<stop offset="1" stop-color="#C4C4C4" stop-opacity="0"/>
</linearGradient>
<linearGradient id="paint9_linear_489_40269" x1="937.85" y1="646.522" x2="360.386" y2="229.118" gradientUnits="userSpaceOnUse">
<stop stop-color="#C4C4C4" stop-opacity="0"/>
<stop offset="0.11282" stop-color="#C4C4C4"/>
<stop offset="0.284305" stop-color="#C4C4C4"/>
<stop offset="1" stop-color="#C4C4C4" stop-opacity="0"/>
</linearGradient>
<linearGradient id="paint10_linear_489_40269" x1="797.131" y1="294.177" x2="663.248" y2="429.066" gradientUnits="userSpaceOnUse">
<stop offset="0.155373" stop-color="#C4C4C4"/>
<stop offset="1" stop-color="#C4C4C4" stop-opacity="0"/>
</linearGradient>
</defs>
</svg>
