<svg width="129" height="30" viewBox="0 0 129 30" fill="none" xmlns="http://www.w3.org/2000/svg">
<path fill-rule="evenodd" clip-rule="evenodd" d="M10.2602 21.1151V26.2452C10.2602 27.9443 11.6392 29.3232 13.3383 29.3232H25.6505C27.3496 29.3232 28.7286 27.9443 28.7286 26.2452V21.1151H10.2602ZM22.5724 24.1931H24.6245C25.1908 24.1931 25.6505 24.6528 25.6505 25.2192C25.6505 25.7855 25.1908 26.2452 24.6245 26.2452H22.5724C22.0061 26.2452 21.5464 25.7855 21.5464 25.2192C21.5464 24.6528 22.0061 24.1931 22.5724 24.1931ZM11.2862 0.676758C5.05725 0.676758 0 5.73401 0 11.963C0 17.012 3.32225 21.2926 7.89933 22.7321C8.43902 22.9024 9.01564 22.6018 9.18596 22.0611C9.35628 21.5214 9.0577 20.9458 8.51699 20.7765C5.06136 19.6899 2.48399 16.6211 2.10642 12.9069H7.19445C7.23242 14.0222 7.37195 15.1231 7.61307 16.2076C7.73619 16.7606 8.28409 17.1105 8.83711 16.9874C9.38911 16.8643 9.73898 16.3154 9.61689 15.7623C9.40758 14.8246 9.28651 13.8704 9.24854 12.9069H21.1432C21.2673 12.9603 21.4028 12.989 21.5464 12.989C22.1128 12.989 22.5724 12.5293 22.5724 11.963C22.5724 5.73401 17.5152 0.676758 11.2862 0.676758ZM13.3383 14.959C11.6392 14.959 10.2602 16.3379 10.2602 18.037V19.063H28.7286V18.037C28.7286 16.3379 27.3496 14.959 25.6505 14.959H13.3383ZM9.45067 2.91348C8.16712 5.58729 7.43659 8.24981 7.24062 10.8549H2.11976C2.59583 6.89034 5.58771 3.69428 9.45067 2.91348ZM13.1197 2.91348C16.9847 3.69326 19.9766 6.88931 20.4527 10.8549H15.3359C15.14 8.25186 14.4022 5.58729 13.1197 2.91348ZM11.2842 3.82869C12.4159 6.19469 13.0818 8.54941 13.2757 10.8549H9.29677C9.48966 8.54941 10.1535 6.19469 11.2842 3.82869Z" fill="#7860DC"/>
<path fill-rule="evenodd" clip-rule="evenodd" d="M10.2603 21.1151V26.2452C10.2603 27.9443 11.6392 29.3233 13.3383 29.3233H25.6506C27.3496 29.3233 28.7286 27.9443 28.7286 26.2452V21.1151H10.2603ZM22.5725 24.1932H24.6245C25.1909 24.1932 25.6506 24.6528 25.6506 25.2192C25.6506 25.7855 25.1909 26.2452 24.6245 26.2452H22.5725C22.0061 26.2452 21.5465 25.7855 21.5465 25.2192C21.5465 24.6528 22.0061 24.1932 22.5725 24.1932ZM13.3383 14.959C11.6392 14.959 10.2603 16.338 10.2603 18.037V19.0631H28.7286V18.037C28.7286 16.338 27.3496 14.959 25.6506 14.959H13.3383Z" fill="#32D3A1"/>
<path d="M96.976 7.35938H95.5391C94.8207 8.30208 94.1015 9.24479 93.383 10.1875C94.3962 10.1832 95.4094 10.1781 96.4225 10.1738C98.2237 10.1738 99.2558 10.8518 99.2558 12.3754C99.2558 14.4817 97.8576 15.5885 95.3449 15.5885H93.5523L93.5558 15.5696H89.2805C87.1244 18.3978 84.9692 21.2267 82.814 24.0549H87.8153C89.2032 22.1299 90.591 20.205 91.9797 18.28C92.9749 18.3204 93.97 18.3617 94.966 18.4021C99.23 18.4021 102.774 16.5759 102.774 11.8529C102.774 8.59684 100.284 7.35938 96.976 7.35938Z" fill="#32D3A1"/>
<path d="M111.911 7.35938H107.667L98.8396 24.0557H102.747L104.647 20.0288H109.69L109.88 24.0557H113.6L111.911 7.35938ZM105.914 17.3425L106.966 15.1133C107.756 13.4307 108.41 11.8272 109.149 10.0827H109.253C109.29 11.8607 109.379 13.4479 109.458 15.1133L109.563 17.3425H105.915H105.914Z" fill="#32D3A1"/>
<path d="M128.395 7.35938L121.241 18.1571L120.052 24.0557H116.512L117.682 18.1571L114.98 7.35938H118.669L119.387 11.4233C119.618 12.7123 119.801 13.8166 120.037 15.1528H120.135C120.843 13.826 121.46 12.665 122.209 11.3803L124.568 7.35938H128.394H128.395Z" fill="#32D3A1"/>
<path d="M73.0229 22.5813L75.3788 5.94434H83.1264C87.1824 5.94434 88.8339 8.90741 88.4211 11.8948C87.9596 15.1007 85.4823 17.8452 81.4506 17.8452H77.2975L76.6417 22.5813H73.0229ZM77.7347 14.7364H81.6935C83.2236 14.7364 84.6808 13.522 84.9237 11.8948C85.1666 10.2189 84.0251 9.05313 82.4707 9.05313H78.5362L77.7347 14.7364Z" fill="#7860DC"/>
<path d="M65.4819 22.5813L67.8378 5.94434H71.3837L69.0522 22.5813H65.4819Z" fill="#7860DC"/>
<path d="M48.8552 22.5813L51.2111 5.94434H58.643C62.6747 5.94434 64.3505 8.90741 63.9133 11.8948C63.5976 14.2749 62.1161 16.388 59.7845 17.3109L62.7232 22.557H58.5944L55.9228 17.8452H53.0812L52.4255 22.5813H48.8552ZM54.3199 9.05313L53.5184 14.7364H57.1858C58.7158 14.7364 60.1974 13.522 60.416 11.8948C60.6588 10.2189 59.5173 9.05313 57.9872 9.05313H54.3199Z" fill="#7860DC"/>
<path d="M39.0444 22.5813L40.8903 9.34458H36.6157L37.1015 5.94434H49.2208L48.7351 9.34458H44.4605L42.5904 22.5813H39.0444Z" fill="#7860DC"/>
</svg>
