<svg width="158" height="96" viewBox="0 0 158 96" fill="none" xmlns="http://www.w3.org/2000/svg">
<path fill-rule="evenodd" clip-rule="evenodd" d="M71.9343 36.1487V44.9808C71.9343 47.9059 74.3084 50.28 77.2335 50.28H98.4304C101.356 50.28 103.73 47.9059 103.73 44.9808V36.1487H71.9343ZM93.1312 41.448H96.664C97.6391 41.448 98.4304 42.2393 98.4304 43.2144C98.4304 44.1894 97.6391 44.9808 96.664 44.9808H93.1312C92.1562 44.9808 91.3648 44.1894 91.3648 43.2144C91.3648 42.2393 92.1562 41.448 93.1312 41.448ZM73.7007 0.961914C62.9769 0.961914 54.2703 9.66853 54.2703 20.3924C54.2703 29.0849 59.9899 36.4543 67.8698 38.9326C68.799 39.2258 69.7917 38.7083 70.0849 37.7774C70.3781 36.8482 69.8641 35.8573 68.9332 35.5658C62.9839 33.6952 58.5467 28.4119 57.8967 22.0175H66.6563C66.7217 23.9376 66.9619 25.8329 67.377 27.7C67.589 28.6521 68.5322 29.2544 69.4843 29.0425C70.4346 28.8305 71.037 27.8855 70.8268 26.9334C70.4664 25.3189 70.258 23.6761 70.1927 22.0175H90.6706C90.8843 22.1093 91.1175 22.1588 91.3648 22.1588C92.3399 22.1588 93.1312 21.3674 93.1312 20.3924C93.1312 9.66853 84.4246 0.961914 73.7007 0.961914ZM77.2335 25.5503C74.3084 25.5503 71.9343 27.9243 71.9343 30.8495V32.6159H103.73V30.8495C103.73 27.9243 101.356 25.5503 98.4304 25.5503H77.2335ZM70.5406 4.81268C68.3309 9.41594 67.0732 13.9998 66.7358 18.4847H57.9197C58.7393 11.6593 63.8901 6.15692 70.5406 4.81268ZM76.8573 4.81268C83.5114 6.15515 88.6622 11.6575 89.4818 18.4847H80.6727C80.3354 14.0033 79.0653 9.41594 76.8573 4.81268ZM73.6972 6.38832C75.6455 10.4616 76.7919 14.5156 77.1258 18.4847H70.2757C70.6078 14.5156 71.7506 10.4616 73.6972 6.38832Z" fill="#7860DC"/>
<path fill-rule="evenodd" clip-rule="evenodd" d="M71.9346 36.1492V44.9813C71.9346 47.9064 74.3086 50.2805 77.2338 50.2805H98.4307C101.356 50.2805 103.73 47.9064 103.73 44.9813V36.1492H71.9346ZM93.1314 41.4484H96.6643C97.6393 41.4484 98.4307 42.2398 98.4307 43.2148C98.4307 44.1899 97.6393 44.9813 96.6643 44.9813H93.1314C92.1564 44.9813 91.365 44.1899 91.365 43.2148C91.365 42.2398 92.1564 41.4484 93.1314 41.4484ZM77.2338 25.5508C74.3086 25.5508 71.9346 27.9248 71.9346 30.85V32.6164H103.73V30.85C103.73 27.9248 101.356 25.5508 98.4307 25.5508H77.2338Z" fill="#32D3A1"/>
<path d="M103.913 66.2939H101.44C100.203 67.9169 98.9644 69.5399 97.7276 71.1629C99.4718 71.1555 101.216 71.1466 102.96 71.1392C106.061 71.1392 107.838 72.3065 107.838 74.9296C107.838 78.5558 105.431 80.4614 101.105 80.4614H98.019L98.0249 80.4288H90.6646C86.9527 85.2977 83.2422 90.1682 79.5317 95.0371H88.1422C90.5315 91.7231 92.9208 88.4091 95.3116 85.0951C97.0248 85.1646 98.738 85.2356 100.453 85.3051C107.794 85.3051 113.895 82.1613 113.895 74.0301C113.895 68.4244 109.609 66.2939 103.913 66.2939Z" fill="#32D3A1"/>
<path d="M129.626 66.2939H122.319L107.122 95.0386H113.849L117.12 88.1058H125.801L126.13 95.0386H132.533L129.626 66.2939ZM119.3 83.481L121.111 79.6432C122.472 76.7464 123.598 73.9857 124.871 70.9824H125.05C125.113 74.0434 125.266 76.776 125.402 79.6432L125.584 83.481H119.302H119.3Z" fill="#32D3A1"/>
<path d="M158.004 66.2939L145.689 84.8835L143.641 95.0386H137.547L139.561 84.8835L134.909 66.2939H141.259L142.496 73.2904C142.894 75.5096 143.209 77.4107 143.615 79.7113H143.785C145.002 77.427 146.065 75.4282 147.355 73.2164L151.416 66.2939H158.002H158.004Z" fill="#32D3A1"/>
<path d="M62.6753 92.5007L66.7312 63.8584H80.0696C87.0524 63.8584 89.8957 68.9597 89.1848 74.1027C88.3904 79.6221 84.1255 84.3471 77.1845 84.3471H70.0344L68.9055 92.5007H62.6753ZM70.787 78.9949H77.6026C80.2368 78.9949 82.7456 76.9042 83.1638 74.1027C83.5819 71.2176 81.6167 69.2105 78.9406 69.2105H72.1669L70.787 78.9949Z" fill="#7860DC"/>
<path d="M49.6926 92.5007L53.7485 63.8584H59.8532L55.8392 92.5007H49.6926Z" fill="#7860DC"/>
<path d="M21.0679 92.5007L25.1237 63.8584H37.9186C44.8596 63.8584 47.7447 68.9597 46.992 74.1027C46.4485 78.2005 43.8979 81.8382 39.8838 83.4272L44.9432 92.4589H37.835L33.2355 84.3471H28.3434L27.2144 92.5007H21.0679ZM30.4758 69.2105L29.096 78.9949H35.4098C38.044 78.9949 40.5946 76.9042 40.9709 74.1027C41.3891 71.2176 39.4239 69.2105 36.7896 69.2105H30.4758Z" fill="#7860DC"/>
<path d="M4.17766 92.5007L7.35546 69.7123H-0.00366211L0.832601 63.8584H21.6974L20.8611 69.7123H13.502L10.2824 92.5007H4.17766Z" fill="#7860DC"/>
</svg>
