<svg width="44" height="44" viewBox="0 0 44 44" fill="none" xmlns="http://www.w3.org/2000/svg">
<path fill-rule="evenodd" clip-rule="evenodd" d="M15.8439 31.1731V38.8683C15.8439 41.4169 17.9124 43.4854 20.461 43.4854H38.9294C41.478 43.4854 43.5465 41.4169 43.5465 38.8683V31.1731H15.8439ZM34.3123 35.7902H37.3903C38.2399 35.7902 38.9294 36.4797 38.9294 37.3292C38.9294 38.1788 38.2399 38.8683 37.3903 38.8683H34.3123C33.4627 38.8683 32.7732 38.1788 32.7732 37.3292C32.7732 36.4797 33.4627 35.7902 34.3123 35.7902ZM17.3829 0.515625C8.03949 0.515625 0.453613 8.1015 0.453613 17.445C0.453613 25.0185 5.43699 31.4394 12.3026 33.5986C13.1121 33.8541 13.9771 33.4032 14.2325 32.5921C14.488 31.7826 14.0402 30.9192 13.2291 30.6652C8.04565 29.0354 4.17961 24.4322 3.61324 18.8609H11.2453C11.3022 20.5338 11.5115 22.1852 11.8732 23.8119C12.0579 24.6415 12.8797 25.1663 13.7093 24.9816C14.5373 24.7969 15.0621 23.9735 14.8789 23.144C14.565 21.7373 14.3834 20.306 14.3264 18.8609H32.1684C32.3546 18.9409 32.5578 18.984 32.7732 18.984C33.6228 18.984 34.3123 18.2945 34.3123 17.445C34.3123 8.1015 26.7264 0.515625 17.3829 0.515625ZM20.461 21.9389C17.9124 21.9389 15.8439 24.0074 15.8439 26.556V28.095H43.5465V26.556C43.5465 24.0074 41.478 21.9389 38.9294 21.9389H20.461ZM14.6296 3.87071C12.7043 7.88142 11.6085 11.8752 11.3145 15.7828H3.63325C4.34736 9.83599 8.83517 5.04191 14.6296 3.87071ZM20.1332 3.87071C25.9307 5.04037 30.4185 9.83445 31.1326 15.7828H23.4575C23.1635 11.8783 22.057 7.88142 20.1332 3.87071ZM17.3799 5.24353C19.0774 8.79253 20.0762 12.3246 20.3671 15.7828H14.3988C14.6881 12.3246 15.6839 8.79253 17.3799 5.24353Z" fill="#7860DC"/>
<path fill-rule="evenodd" clip-rule="evenodd" d="M15.8438 31.1736V38.8688C15.8438 41.4174 17.9122 43.4859 20.4608 43.4859H38.9292C41.4778 43.4859 43.5463 41.4174 43.5463 38.8688V31.1736H15.8438ZM34.3121 35.7907H37.3902C38.2397 35.7907 38.9292 36.4802 38.9292 37.3298C38.9292 38.1793 38.2397 38.8688 37.3902 38.8688H34.3121C33.4626 38.8688 32.7731 38.1793 32.7731 37.3298C32.7731 36.4802 33.4626 35.7907 34.3121 35.7907ZM20.4608 21.9395C17.9122 21.9395 15.8438 24.0079 15.8438 26.5565V28.0956H43.5463V26.5565C43.5463 24.0079 41.4778 21.9395 38.9292 21.9395H20.4608Z" fill="#32D3A1"/>
</svg>
