<svg width="24" height="25" viewBox="0 0 24 25" fill="none" xmlns="http://www.w3.org/2000/svg">
<path d="M2.13352 8.66679C1.83359 8.45255 1.68363 8.34543 1.55288 8.33152C1.35735 8.31073 1.16139 8.41157 1.06467 8.58277C0.999992 8.69724 0.999995 8.87951 1 9.24404V15.7267C0.999988 16.5316 0.999978 17.196 1.04419 17.7372C1.09012 18.2993 1.18868 18.816 1.43598 19.3013C1.81947 20.054 2.43139 20.6659 3.18404 21.0494C3.66937 21.2967 4.18608 21.3952 4.74818 21.4412C5.28937 21.4854 5.95372 21.4854 6.75868 21.4854H17.2413C18.0463 21.4854 18.7106 21.4854 19.2518 21.4412C19.8139 21.3952 20.3306 21.2967 20.816 21.0494C21.5686 20.6659 22.1805 20.054 22.564 19.3013C22.8113 18.816 22.9099 18.2993 22.9558 17.7372C23 17.196 23 16.5316 23 15.7267V9.24403C23 9.06536 23 8.97603 22.9836 8.91364C22.9096 8.63162 22.603 8.47097 22.329 8.57066C22.2684 8.59272 22.194 8.64421 22.0453 8.74719L14.3032 14.1073C13.7542 14.4885 13.2722 14.8232 12.7247 14.956C12.2458 15.072 11.7456 15.0684 11.2685 14.9452C10.7229 14.8045 10.2459 14.4627 9.70265 14.0735L2.13352 8.66679Z" fill="#111827"/>
<path d="M22.1328 6.25407C22.3174 6.12627 22.4097 6.06237 22.4664 5.95959C22.5104 5.87978 22.5356 5.75339 22.5255 5.6628C22.5125 5.54614 22.463 5.46912 22.3638 5.31508C21.9839 4.72499 21.4373 4.23791 20.816 3.92133C20.3306 3.67404 19.8139 3.57547 19.2518 3.52955C18.7106 3.48533 18.0463 3.48534 17.2413 3.48535H6.7587C5.95374 3.48534 5.28937 3.48533 4.74818 3.52955C4.18608 3.57547 3.66937 3.67404 3.18404 3.92133C2.62501 4.20617 2.1418 4.61795 1.77436 5.1187C1.65877 5.27624 1.60097 5.35501 1.58192 5.47456C1.56703 5.56805 1.58783 5.69792 1.63116 5.78209C1.68657 5.88972 1.78269 5.95837 1.97493 6.09568L10.75 12.3636C11.4773 12.8831 11.6316 12.9734 11.7681 13.0087C11.9272 13.0497 12.0939 13.0509 12.2535 13.0122C12.3906 12.979 12.5463 12.8909 13.281 12.3822L22.1328 6.25407Z" fill="#111827"/>
</svg>
