<svg width="20" height="22" viewBox="0 0 20 22" fill="none" xmlns="http://www.w3.org/2000/svg">
<path d="M6.12602 13.6472C6.57006 15.3724 8.13616 16.6472 10 16.6472C11.8638 16.6472 13.4299 15.3724 13.874 13.6472M9.0177 2.41122L2.23539 7.68634C1.78202 8.03896 1.55534 8.21527 1.39203 8.43607C1.24737 8.63166 1.1396 8.852 1.07403 9.08627C1 9.35074 1 9.63791 1 10.2123V17.4472C1 18.5673 1 19.1274 1.21799 19.5552C1.40973 19.9315 1.71569 20.2375 2.09202 20.4292C2.51984 20.6472 3.07989 20.6472 4.2 20.6472H15.8C16.9201 20.6472 17.4802 20.6472 17.908 20.4292C18.2843 20.2375 18.5903 19.9315 18.782 19.5552C19 19.1274 19 18.5673 19 17.4472V10.2123C19 9.63791 19 9.35074 18.926 9.08627C18.8604 8.852 18.7526 8.63166 18.608 8.43607C18.4447 8.21527 18.218 8.03896 17.7646 7.68634L10.9823 2.41122C10.631 2.13796 10.4553 2.00134 10.2613 1.94882C10.0902 1.90248 9.9098 1.90248 9.73865 1.94882C9.54468 2.00134 9.36902 2.13796 9.0177 2.41122Z" stroke="#667085" stroke-width="2" stroke-linecap="round" stroke-linejoin="round"/>
</svg>
