<svg width="22" height="23" viewBox="0 0 22 23" fill="none" xmlns="http://www.w3.org/2000/svg">
<path d="M11 1.64648C12.3132 1.64648 13.6136 1.90514 14.8268 2.40769C16.0401 2.91024 17.1425 3.64683 18.0711 4.57542C18.9997 5.50401 19.7363 6.6064 20.2388 7.81965C20.7413 9.03291 21 10.3333 21 11.6465M11 1.64648V11.6465M11 1.64648C5.47715 1.64648 1 6.12364 1 11.6465C1 17.1693 5.47715 21.6465 11 21.6465C16.5228 21.6465 21 17.1693 21 11.6465M11 1.64648C16.5228 1.64648 21 6.12364 21 11.6465M21 11.6465L11 11.6465M21 11.6465C21 13.2246 20.6265 14.7803 19.9101 16.1864C19.1936 17.5925 18.1546 18.8091 16.8779 19.7367L11 11.6465" stroke="#667085" stroke-width="2" stroke-linecap="round" stroke-linejoin="round"/>
</svg>
