<svg width="20" height="23" viewBox="0 0 20 23" fill="none" xmlns="http://www.w3.org/2000/svg">
<path d="M18.5 6.92383L9.99997 11.6461M9.99997 11.6461L1.49997 6.92383M9.99997 11.6461L10 21.1461M19 15.7046V7.58753C19 7.24488 19 7.07356 18.9495 6.92076C18.9049 6.78559 18.8318 6.6615 18.7354 6.55681C18.6263 6.43848 18.4766 6.35528 18.177 6.18887L10.777 2.07776C10.4934 1.9202 10.3516 1.84143 10.2015 1.81054C10.0685 1.78321 9.93146 1.78321 9.79855 1.81054C9.64838 1.84143 9.50658 1.92021 9.22297 2.07776L1.82297 6.18888C1.52345 6.35528 1.37369 6.43848 1.26463 6.55682C1.16816 6.66151 1.09515 6.78559 1.05048 6.92076C1 7.07356 1 7.24488 1 7.58753V15.7046C1 16.0473 1 16.2186 1.05048 16.3714C1.09515 16.5066 1.16816 16.6307 1.26463 16.7353C1.37369 16.8537 1.52345 16.9369 1.82297 17.1033L9.22297 21.2144C9.50658 21.372 9.64838 21.4507 9.79855 21.4816C9.93146 21.509 10.0685 21.509 10.2015 21.4816C10.3516 21.4507 10.4934 21.372 10.777 21.2144L18.177 17.1033C18.4766 16.9369 18.6263 16.8537 18.7354 16.7353C18.8318 16.6307 18.9049 16.5066 18.9495 16.3714C19 16.2186 19 16.0473 19 15.7046Z" stroke="#667085" stroke-width="2" stroke-linecap="round" stroke-linejoin="round"/>
</svg>
