<svg width="24" height="25" viewBox="0 0 24 25" fill="none" xmlns="http://www.w3.org/2000/svg">
<path d="M22 21.6465V19.6465C22 17.7826 20.7252 16.2165 19 15.7725M15.5 3.93724C16.9659 4.53063 18 5.9678 18 7.64648C18 9.32517 16.9659 10.7623 15.5 11.3557M17 21.6465C17 19.7827 17 18.8508 16.6955 18.1158C16.2895 17.1356 15.5108 16.3569 14.5307 15.951C13.7956 15.6465 12.8638 15.6465 11 15.6465H8C6.13623 15.6465 5.20435 15.6465 4.46927 15.951C3.48915 16.3569 2.71046 17.1356 2.30448 18.1158C2 18.8508 2 19.7827 2 21.6465M13.5 7.64648C13.5 9.85562 11.7091 11.6465 9.5 11.6465C7.29086 11.6465 5.5 9.85562 5.5 7.64648C5.5 5.43735 7.29086 3.64648 9.5 3.64648C11.7091 3.64648 13.5 5.43735 13.5 7.64648Z" stroke="#667085" stroke-width="2" stroke-linecap="round" stroke-linejoin="round"/>
</svg>
