<svg width="22" height="23" viewBox="0 0 22 23" fill="none" xmlns="http://www.w3.org/2000/svg">
<path d="M11 14.6465C12.6569 14.6465 14 13.3033 14 11.6465C14 9.98963 12.6569 8.64648 11 8.64648C9.34315 8.64648 8 9.98963 8 11.6465C8 13.3033 9.34315 14.6465 11 14.6465Z" stroke="#667085" stroke-width="2" stroke-linecap="round" stroke-linejoin="round"/>
<path d="M17.7273 14.3738C17.6063 14.648 17.5702 14.9521 17.6236 15.247C17.6771 15.5419 17.8177 15.814 18.0273 16.0283L18.0818 16.0828C18.2509 16.2517 18.385 16.4522 18.4765 16.673C18.568 16.8937 18.6151 17.1303 18.6151 17.3692C18.6151 17.6081 18.568 17.8447 18.4765 18.0655C18.385 18.2862 18.2509 18.4867 18.0818 18.6556C17.913 18.8246 17.7124 18.9587 17.4917 19.0502C17.271 19.1417 17.0344 19.1888 16.7955 19.1888C16.5565 19.1888 16.3199 19.1417 16.0992 19.0502C15.8785 18.9587 15.678 18.8246 15.5091 18.6556L15.4545 18.601C15.2403 18.3915 14.9682 18.2509 14.6733 18.1974C14.3784 18.1439 14.0742 18.18 13.8 18.301C13.5311 18.4163 13.3018 18.6076 13.1403 18.8515C12.9788 19.0954 12.8921 19.3812 12.8909 19.6738V19.8283C12.8909 20.3105 12.6994 20.773 12.3584 21.114C12.0174 21.4549 11.5549 21.6465 11.0727 21.6465C10.5905 21.6465 10.1281 21.4549 9.78708 21.114C9.4461 20.773 9.25455 20.3105 9.25455 19.8283V19.7465C9.24751 19.4456 9.15011 19.1538 8.97501 18.9089C8.79991 18.6641 8.55521 18.4777 8.27273 18.3738C7.99853 18.2527 7.69437 18.2166 7.39947 18.2701C7.10456 18.3236 6.83244 18.4642 6.61818 18.6738L6.56364 18.7283C6.39478 18.8974 6.19425 19.0315 5.97353 19.123C5.7528 19.2145 5.51621 19.2616 5.27727 19.2616C5.03834 19.2616 4.80174 19.2145 4.58102 19.123C4.36029 19.0315 4.15977 18.8974 3.99091 18.7283C3.82186 18.5594 3.68775 18.3589 3.59626 18.1382C3.50476 17.9175 3.45766 17.6809 3.45766 17.4419C3.45766 17.203 3.50476 16.9664 3.59626 16.7457C3.68775 16.525 3.82186 16.3244 3.99091 16.1556L4.04545 16.101C4.25503 15.8868 4.39562 15.6147 4.4491 15.3197C4.50257 15.0248 4.46647 14.7207 4.34545 14.4465C4.23022 14.1776 4.03887 13.9483 3.79497 13.7868C3.55107 13.6252 3.26526 13.5386 2.97273 13.5374H2.81818C2.33597 13.5374 1.87351 13.3458 1.53253 13.0049C1.19156 12.6639 1 12.2014 1 11.7192C1 11.237 1.19156 10.7745 1.53253 10.4336C1.87351 10.0926 2.33597 9.90103 2.81818 9.90103H2.9C3.2009 9.89399 3.49273 9.79659 3.73754 9.62149C3.98236 9.4464 4.16883 9.2017 4.27273 8.91921C4.39374 8.64502 4.42984 8.34085 4.37637 8.04595C4.3229 7.75104 4.18231 7.47892 3.97273 7.26467L3.91818 7.21012C3.74913 7.04126 3.61503 6.84074 3.52353 6.62001C3.43203 6.39929 3.38493 6.16269 3.38493 5.92376C3.38493 5.68482 3.43203 5.44823 3.52353 5.2275C3.61503 5.00678 3.74913 4.80625 3.91818 4.63739C4.08704 4.46835 4.28757 4.33424 4.50829 4.24274C4.72901 4.15124 4.96561 4.10415 5.20455 4.10415C5.44348 4.10415 5.68008 4.15124 5.9008 4.24274C6.12152 4.33424 6.32205 4.46835 6.49091 4.63739L6.54545 4.69194C6.75971 4.90152 7.03183 5.04211 7.32674 5.09558C7.62164 5.14905 7.9258 5.11295 8.2 4.99194H8.27273C8.54161 4.8767 8.77093 4.68535 8.93245 4.44145C9.09397 4.19755 9.18065 3.91175 9.18182 3.61921V3.46467C9.18182 2.98245 9.37338 2.51999 9.71435 2.17902C10.0553 1.83804 10.5178 1.64648 11 1.64648C11.4822 1.64648 11.9447 1.83804 12.2856 2.17902C12.6266 2.51999 12.8182 2.98245 12.8182 3.46467V3.54648C12.8193 3.83902 12.906 4.12483 13.0676 4.36873C13.2291 4.61263 13.4584 4.80397 13.7273 4.91921C14.0015 5.04023 14.3056 5.07632 14.6005 5.02285C14.8954 4.96938 15.1676 4.82879 15.3818 4.61921L15.4364 4.56467C15.6052 4.39562 15.8057 4.26151 16.0265 4.17001C16.2472 4.07851 16.4838 4.03142 16.7227 4.03142C16.9617 4.03142 17.1983 4.07851 17.419 4.17001C17.6397 4.26151 17.8402 4.39562 18.0091 4.56467C18.1781 4.73353 18.3122 4.93405 18.4037 5.15477C18.4952 5.3755 18.5423 5.61209 18.5423 5.85103C18.5423 6.08997 18.4952 6.32656 18.4037 6.54729C18.3122 6.76801 18.1781 6.96853 18.0091 7.13739L17.9545 7.19194C17.745 7.40619 17.6044 7.67832 17.5509 7.97322C17.4974 8.26813 17.5335 8.57229 17.6545 8.84648V8.91921C17.7698 9.18809 17.9611 9.41741 18.205 9.57893C18.4489 9.74046 18.7347 9.82714 19.0273 9.8283H19.1818C19.664 9.8283 20.1265 10.0199 20.4675 10.3608C20.8084 10.7018 21 11.1643 21 11.6465C21 12.1287 20.8084 12.5912 20.4675 12.9321C20.1265 13.2731 19.664 13.4647 19.1818 13.4647H19.1C18.8075 13.4658 18.5217 13.5525 18.2778 13.714C18.0339 13.8756 17.8425 14.1049 17.7273 14.3738Z" stroke="#667085" stroke-width="2" stroke-linecap="round" stroke-linejoin="round"/>
</svg>
