<svg width="24" height="25" viewBox="0 0 24 25" fill="none" xmlns="http://www.w3.org/2000/svg">
<path d="M8.12602 14.6462C8.57006 16.3715 10.1362 17.6462 12 17.6462C13.8638 17.6462 15.4299 16.3715 15.874 14.6462M11.0177 3.41024L4.23539 8.68537C3.78202 9.03799 3.55534 9.2143 3.39203 9.4351C3.24737 9.63068 3.1396 9.85102 3.07403 10.0853C3 10.3498 3 10.6369 3 11.2113V18.4462C3 19.5663 3 20.1264 3.21799 20.5542C3.40973 20.9305 3.71569 21.2365 4.09202 21.4282C4.51984 21.6462 5.07989 21.6462 6.2 21.6462H17.8C18.9201 21.6462 19.4802 21.6462 19.908 21.4282C20.2843 21.2365 20.5903 20.9305 20.782 20.5542C21 20.1264 21 19.5663 21 18.4462V11.2113C21 10.6369 21 10.3498 20.926 10.0853C20.8604 9.85102 20.7526 9.63068 20.608 9.4351C20.4447 9.2143 20.218 9.03799 19.7646 8.68537L12.9823 3.41024C12.631 3.13699 12.4553 3.00036 12.2613 2.94784C12.0902 2.9015 11.9098 2.9015 11.7387 2.94784C11.5447 3.00036 11.369 3.13699 11.0177 3.41024Z" stroke="white" stroke-width="2" stroke-linecap="round" stroke-linejoin="round"/>
</svg>
