<svg width="20" height="21" viewBox="0 0 20 21" fill="none" xmlns="http://www.w3.org/2000/svg">
<path d="M14 6.6468V3.14746C14 2.31572 14 1.89985 13.8248 1.64427C13.6717 1.42098 13.4346 1.2693 13.1678 1.22388C12.8623 1.1719 12.4847 1.34617 11.7295 1.69472L2.85901 5.78879C2.18551 6.09964 1.84875 6.25507 1.60211 6.49612C1.38406 6.70922 1.21762 6.96935 1.1155 7.25663C1 7.58159 1 7.95248 1 8.69426V13.6468M14.5 13.1468H14.51M1 9.8468L1 16.4468C1 17.5669 1 18.127 1.21799 18.5548C1.40973 18.9311 1.71569 19.2371 2.09202 19.4288C2.51984 19.6468 3.07989 19.6468 4.2 19.6468H15.8C16.9201 19.6468 17.4802 19.6468 17.908 19.4288C18.2843 19.2371 18.5903 18.9311 18.782 18.5548C19 18.127 19 17.5669 19 16.4468V9.8468C19 8.7267 19 8.16664 18.782 7.73882C18.5903 7.3625 18.2843 7.05654 17.908 6.86479C17.4802 6.6468 16.9201 6.6468 15.8 6.6468L4.2 6.6468C3.0799 6.6468 2.51984 6.6468 2.09202 6.86479C1.7157 7.05653 1.40973 7.3625 1.21799 7.73882C1 8.16664 1 8.7267 1 9.8468ZM15 13.1468C15 13.4229 14.7761 13.6468 14.5 13.6468C14.2239 13.6468 14 13.4229 14 13.1468C14 12.8707 14.2239 12.6468 14.5 12.6468C14.7761 12.6468 15 12.8707 15 13.1468Z" stroke="#667085" stroke-width="2" stroke-linecap="round" stroke-linejoin="round"/>
</svg>
