<svg width="24" height="25" viewBox="0 0 24 25" fill="none" xmlns="http://www.w3.org/2000/svg">
<path d="M16.24 2.48535H7.76C5 2.48535 4 3.48535 4 6.29535V18.6754C4 21.4854 5 22.4854 7.76 22.4854H16.23C19 22.4854 20 21.4854 20 18.6754V6.29535C20 3.48535 19 2.48535 16.24 2.48535ZM12 19.7854C11.04 19.7854 10.25 18.9953 10.25 18.0354C10.25 17.0754 11.04 16.2854 12 16.2854C12.96 16.2854 13.75 17.0754 13.75 18.0354C13.75 18.9953 12.96 19.7854 12 19.7854ZM14 6.73535H10C9.59 6.73535 9.25 6.39535 9.25 5.98535C9.25 5.57535 9.59 5.23535 10 5.23535H14C14.41 5.23535 14.75 5.57535 14.75 5.98535C14.75 6.39535 14.41 6.73535 14 6.73535Z" fill="#292D32"/>
</svg>
