<svg width="22" height="23" viewBox="0 0 22 23" fill="none" xmlns="http://www.w3.org/2000/svg">
<path d="M8.13626 8.78277L3.92893 4.57544M3.92893 18.7176L8.16797 14.4785M13.8611 14.5102L18.0684 18.7176M18.0684 4.57544L13.8287 8.8151M21 11.6465C21 17.1693 16.5228 21.6465 11 21.6465C5.47715 21.6465 1 17.1693 1 11.6465C1 6.12364 5.47715 1.64648 11 1.64648C16.5228 1.64648 21 6.12364 21 11.6465ZM15 11.6465C15 13.8556 13.2091 15.6465 11 15.6465C8.79086 15.6465 7 13.8556 7 11.6465C7 9.43735 8.79086 7.64648 11 7.64648C13.2091 7.64648 15 9.43735 15 11.6465Z" stroke="#667085" stroke-width="2" stroke-linecap="round" stroke-linejoin="round"/>
</svg>
