<svg width="56" height="56" viewBox="0 0 56 56" fill="none" xmlns="http://www.w3.org/2000/svg">
<path d="M0 12C0 5.37258 5.37258 0 12 0H44C50.6274 0 56 5.37258 56 12V44C56 50.6274 50.6274 56 44 56H12C5.37258 56 0 50.6274 0 44V12Z" fill="url(#paint0_linear_589_48067)"/>
<path d="M29.1665 22.7504L25.6665 26.2504L30.3332 28.5838L26.8332 32.0838M37.3332 28.0004C37.3332 33.7269 31.0869 37.8919 28.8142 39.2178C28.5559 39.3685 28.4267 39.4438 28.2445 39.4829C28.103 39.5132 27.8967 39.5132 27.7552 39.4829C27.573 39.4438 27.4438 39.3685 27.1855 39.2178C24.9128 37.8919 18.6665 33.7269 18.6665 28.0004V22.421C18.6665 21.4882 18.6665 21.0218 18.8191 20.6209C18.9538 20.2667 19.1728 19.9507 19.4571 19.7002C19.7789 19.4166 20.2156 19.2528 21.089 18.9253L27.3444 16.5795C27.587 16.4886 27.7082 16.4431 27.833 16.4251C27.9436 16.4091 28.056 16.4091 28.1667 16.4251C28.2915 16.4431 28.4127 16.4886 28.6553 16.5795L34.9107 18.9253C35.7841 19.2528 36.2208 19.4166 36.5426 19.7002C36.8269 19.9507 37.0459 20.2667 37.1806 20.6209C37.3332 21.0218 37.3332 21.4882 37.3332 22.421V28.0004Z" stroke="white" stroke-width="2" stroke-linecap="round" stroke-linejoin="round"/>
<defs>
<linearGradient id="paint0_linear_589_48067" x1="56" y1="0" x2="-6.00011" y2="21.9126" gradientUnits="userSpaceOnUse">
<stop stop-color="#6045CF"/>
<stop offset="0.203125" stop-color="#606CDC"/>
<stop offset="0.541667" stop-color="#4B8ECB"/>
<stop offset="1" stop-color="#32D3A1"/>
</linearGradient>
</defs>
</svg>
