<svg width="22" height="21" viewBox="0 0 22 21" fill="none" xmlns="http://www.w3.org/2000/svg">
<path d="M21 19.6465V17.6465C21 15.7826 19.7252 14.2165 18 13.7725M14.5 1.93724C15.9659 2.53063 17 3.9678 17 5.64648C17 7.32517 15.9659 8.76234 14.5 9.35573M16 19.6465C16 17.7827 16 16.8508 15.6955 16.1158C15.2895 15.1356 14.5108 14.3569 13.5307 13.951C12.7956 13.6465 11.8638 13.6465 10 13.6465H7C5.13623 13.6465 4.20435 13.6465 3.46927 13.951C2.48915 14.3569 1.71046 15.1356 1.30448 16.1158C1 16.8508 1 17.7827 1 19.6465M12.5 5.64648C12.5 7.85562 10.7091 9.64648 8.5 9.64648C6.29086 9.64648 4.5 7.85562 4.5 5.64648C4.5 3.43735 6.29086 1.64648 8.5 1.64648C10.7091 1.64648 12.5 3.43735 12.5 5.64648Z" stroke="white" stroke-width="2" stroke-linecap="round" stroke-linejoin="round"/>
</svg>
